<svg width="75" height="14" xmlns="http://www.w3.org/2000/svg">
 <!-- Created with Method Draw - http://github.com/duopixel/Method-Draw/ -->
 <g>
  <title>background</title>
  <rect fill="none" id="canvas_background" height="16" width="77" y="-1" x="-1"/>
 </g>
 <g>
  <title>Layer 1</title>
  <path id="svg_1" d="m14.241417,5.429922l-5.172043,0l-1.596542,-4.913488l-0.224175,0.686654l-1.374251,4.227775l-5.17063,-0.000942l4.183035,3.039553l-1.599368,4.916785l4.183977,-3.039553l4.184918,3.040965l-1.599839,-4.918198l4.184918,-3.039553zm-6.215682,4.154777l-0.553374,-0.401726l-0.553374,0.402197l-1.837672,1.33469l0.701725,-2.158864l0.21193,-0.650862l-0.554316,-0.402668l-1.83673,-1.33469l2.955251,0l0.21193,-0.650391l0.701254,-2.158864l0.701254,2.157451l0.211459,0.650391l2.958077,0l-1.839556,1.335632l-0.554787,0.402197l0.211459,0.651804l0.703138,2.158864l-1.837672,-1.335161z" fill-opacity="null" stroke-opacity="null" stroke-width="0" stroke="#000" fill="#ffd825"/>
  <path id="svg_2" d="m28.951404,5.42992l-5.17204,0l-1.59655,-4.91349l-0.22417,0.68666l-1.37425,4.22777l-5.17063,-0.00094l4.18303,3.03955l-1.59937,4.91679l4.18398,-3.03955l4.18492,3.04096l-1.59984,-4.9182l4.18492,-3.03955zm-6.21568,4.15478l-0.55338,-0.40173l-0.55337,0.4022l-1.83767,1.33469l0.70172,-2.15886l0.21193,-0.65087l-0.55431,-0.40266l-1.83673,-1.33469l2.95525,0l0.21193,-0.65039l0.70125,-2.15887l0.70126,2.15745l0.21146,0.65039l2.95807,0l-1.83955,1.33564l-0.55479,0.40219l0.21146,0.65181l0.70314,2.15886l-1.83767,-1.33516z" fill-opacity="null" stroke-opacity="null" stroke-width="0" stroke="#000" fill="#ffd825"/>
  <path id="svg_3" d="m43.82987,5.42992l-5.17204,0l-1.59655,-4.91349l-0.22417,0.68666l-1.37425,4.22777l-5.17063,-0.00094l4.18303,3.03955l-1.59937,4.91679l4.18398,-3.03955l4.18492,3.04096l-1.59984,-4.9182l4.18492,-3.03955zm-6.21568,4.15478l-0.55338,-0.40173l-0.55337,0.4022l-1.83767,1.33469l0.70172,-2.15886l0.21193,-0.65087l-0.55431,-0.40266l-1.83673,-1.33469l2.95525,0l0.21193,-0.65039l0.70125,-2.15887l0.70126,2.15745l0.21146,0.65039l2.95807,0l-1.83955,1.33564l-0.55479,0.40219l0.21146,0.65181l0.70314,2.15886l-1.83767,-1.33516z" fill-opacity="null" stroke-opacity="null" stroke-width="0" stroke="#000" fill="#ffd825"/>
  <path id="svg_4" d="m58.818451,5.42992l-5.17204,0l-1.59655,-4.91349l-0.22417,0.68666l-1.37425,4.22777l-5.17063,-0.00094l4.18303,3.03955l-1.59937,4.91679l4.18398,-3.03955l4.18492,3.04096l-1.59984,-4.9182l4.18492,-3.03955zm-6.21568,4.15478l-0.55338,-0.40173l-0.55337,0.4022l-1.83767,1.33469l0.70172,-2.15886l0.21193,-0.65087l-0.55431,-0.40266l-1.83673,-1.33469l2.95525,0l0.21193,-0.65039l0.70125,-2.15887l0.70126,2.15745l0.21146,0.65039l2.95807,0l-1.83955,1.33564l-0.55479,0.40219l0.21146,0.65181l0.70314,2.15886l-1.83767,-1.33516z" fill-opacity="null" stroke-opacity="null" stroke-width="0" stroke="#000" fill="#ffd825"/>
  <path id="svg_5" d="m73.751316,5.42992l-5.17204,0l-1.59655,-4.91349l-0.22417,0.68666l-1.37425,4.22777l-5.17063,-0.00094l4.18303,3.03955l-1.59937,4.91679l4.18398,-3.03955l4.18492,3.04096l-1.59984,-4.9182l4.18492,-3.03955zm-6.21568,4.15478l-0.55338,-0.40173l-0.55337,0.4022l-1.83767,1.33469l0.70172,-2.15886l0.21193,-0.65087l-0.55431,-0.40266l-1.83673,-1.33469l2.95525,0l0.21193,-0.65039l0.70125,-2.15887l0.70126,2.15745l0.21146,0.65039l2.95807,0l-1.83955,1.33564l-0.55479,0.40219l0.21146,0.65181l0.70314,2.15886l-1.83767,-1.33516z" fill-opacity="null" stroke-opacity="null" stroke-width="0" stroke="#000" fill="#ffd825"/>
  <line stroke-linecap="null" stroke-linejoin="null" id="svg_13" y2="9.423805" x2="7.104931" y1="3.573242" x1="7.104931" stroke-width="NaN" stroke="#ffd825" fill="none"/>
  <path d="m5.154744,10.872516c0,0 -0.091375,-0.124746 0.222878,-0.445757c0.227282,-0.232168 0.363252,-0.36542 0.501477,-0.557197c0.145702,-0.20215 0.128335,-0.321466 0.167159,-0.390038c0.113192,-0.199918 0.162568,-0.411594 0.222878,-0.557197c0.042646,-0.102957 0.046794,-0.167878 0.05572,-0.222878c0.028224,-0.173925 0.01632,-0.294919 0.055719,-0.334318c0.0394,-0.0394 0.01632,-0.07204 0.05572,-0.11144c0.0394,-0.039399 0.119761,-0.029294 0.167159,0c0.21197,0.131005 0.111439,0.445758 0.111439,0.557197c0,0.11144 0,0.167159 0,0.278599c0,0.111439 0,0.222878 0,0.278598c0,0.055719 0.017081,0.248443 -0.055719,0.278598c-0.051478,0.021323 -0.126724,-0.105029 -0.167159,-0.222878c-0.092206,-0.268737 -0.074524,-0.351591 -0.167159,-0.501476c-0.124282,-0.201093 -0.115952,-0.340281 -0.167159,-0.557197c-0.028625,-0.121261 -0.05572,-0.222878 -0.05572,-0.390038c0,-0.167159 -0.012802,-0.335808 0,-0.390038c0.028625,-0.12126 0.167159,-0.167159 0.167159,-0.278598c0,-0.167159 0.05572,-0.222878 0.05572,-0.334318c0,-0.11144 0,-0.278598 0,-0.390038c0,-0.05572 0,-0.111439 0,-0.167159c0,-0.111439 -0.11144,-0.111439 -0.222879,-0.111439c-0.222878,0 -0.502881,-0.006612 -0.780075,0.05572c-0.224141,0.050402 -0.278598,0.055719 -0.334318,0.055719c-0.111439,0 -0.334318,0 -0.612916,0c-0.11144,0 -0.167159,0 -0.222879,0c-0.167159,0 -0.222878,0 -0.278598,0c-0.05572,0 -0.167159,0 -0.222879,0c-0.111439,0 -0.054906,0.039248 0.111439,0.05572c0.282733,0.027996 0.355046,0.077178 0.557196,0.222878c0.063926,0.046075 0.347098,0.074217 0.557197,0.167159c0.183726,0.081275 0.524437,0.221127 0.724355,0.334318c0.137143,0.077649 0.334319,0.222878 0.445757,0.334318c0.055719,0.05572 0.077276,0.106849 0.222878,0.167159c0.051478,0.021323 0.150839,0.01632 0.111439,0.05572c-0.118199,0.118199 -0.197175,-0.033791 -0.334318,-0.111439c-0.199918,-0.113192 -0.317187,-0.177523 -0.390038,-0.278598c-0.046075,-0.063926 -0.039308,-0.130729 -0.167159,-0.222879c-0.101075,-0.072851 -0.192723,-0.205797 -0.222878,-0.278598c-0.042646,-0.102956 -0.026426,-0.119761 -0.05572,-0.167159c-0.065502,-0.105985 -0.170037,-0.075738 -0.390038,-0.111439c-0.173925,-0.028224 -0.355875,-0.106849 -0.501477,-0.167159c-0.102956,-0.042646 -0.225269,0.016147 -0.278598,0c-0.19228,-0.058218 -0.278598,-0.111439 -0.334318,-0.111439c-0.05572,0 -0.167159,-0.05572 -0.167159,0c0,0.05572 0.334318,0 0.557197,0c0.167159,0 0.390038,0 0.501477,0c0.111439,0 0.278598,0 0.390038,0c0.278598,0 0.334318,0 0.390038,0c0.055719,0 0.334318,0 0.445757,0c0.222879,0 0.278598,0 0.334318,0c0.055719,0 0.115681,0.034397 0.167159,0.05572c0.072801,0.030155 0.055719,0.167159 0.055719,0.222878c0,0.334318 0.054696,0.596869 0.111439,0.891514c0.021074,0.109428 0.027495,0.216112 0.05572,0.390038c0.035701,0.220001 0,0.334318 0,0.390037c0,0.11144 0,0.167159 0,0.222879c0,0.055719 0,0.111439 0,0.222878c0,0.167158 0,0.278598 0,0.390038c0,0.055719 0.05572,0.167159 0.05572,0.222878c0,0.055719 0,0.111439 0,0.167159c0,0.055719 0.027094,0.157337 0.055719,0.278598c0.012802,0.054229 -0.001491,0.098639 -0.055719,0.11144c-0.12126,0.028625 -0.318074,0.093198 -0.668636,0.222878c-0.215468,0.079707 -0.312995,0.11568 -0.334318,0.167159c-0.030155,0.072801 -0.16865,0.042918 -0.222878,0.055719c-0.12126,0.028625 -0.190498,0.190497 -0.278598,0.278598c-0.0881,0.0881 -0.111439,0.167159 -0.111439,0.222878l0,0.11144" id="svg_28" fill-opacity="null" stroke-opacity="null" stroke-width="NaN" stroke="#ffd825" fill="none"/>
 </g>
</svg>