<svg width="75" height="14" xmlns="http://www.w3.org/2000/svg">
 <!-- Created with Method Draw - http://github.com/duopixel/Method-Draw/ -->
 <g>
  <title>background</title>
  <rect fill="none" id="canvas_background" height="16" width="77" y="-1" x="-1"/>
 </g>
 <g>
  <title>Layer 1</title>
  <path id="svg_1" d="m14.241417,5.429922l-5.172043,0l-1.596542,-4.913488l-0.224175,0.686654l-1.374251,4.227775l-5.17063,-0.000942l4.183035,3.039553l-1.599368,4.916785l4.183977,-3.039553l4.184918,3.040965l-1.599839,-4.918198l4.184918,-3.039553zm-6.215682,4.154777l-0.553374,-0.401726l-0.553374,0.402197l-1.837672,1.33469l0.701725,-2.158864l0.21193,-0.650862l-0.554316,-0.402668l-1.83673,-1.33469l2.955251,0l0.21193,-0.650391l0.701254,-2.158864l0.701254,2.157451l0.211459,0.650391l2.958077,0l-1.839556,1.335632l-0.554787,0.402197l0.211459,0.651804l0.703138,2.158864l-1.837672,-1.335161z" fill-opacity="null" stroke-opacity="null" stroke-width="0" stroke="#000" fill="#ffd825"/>
  <path id="svg_2" d="m28.951404,5.42992l-5.17204,0l-1.59655,-4.91349l-0.22417,0.68666l-1.37425,4.22777l-5.17063,-0.00094l4.18303,3.03955l-1.59937,4.91679l4.18398,-3.03955l4.18492,3.04096l-1.59984,-4.9182l4.18492,-3.03955zm-6.21568,4.15478l-0.55338,-0.40173l-0.55337,0.4022l-1.83767,1.33469l0.70172,-2.15886l0.21193,-0.65087l-0.55431,-0.40266l-1.83673,-1.33469l2.95525,0l0.21193,-0.65039l0.70125,-2.15887l0.70126,2.15745l0.21146,0.65039l2.95807,0l-1.83955,1.33564l-0.55479,0.40219l0.21146,0.65181l0.70314,2.15886l-1.83767,-1.33516z" fill-opacity="null" stroke-opacity="null" stroke-width="0" stroke="#000" fill="#ffd825"/>
  <path id="svg_3" d="m43.82987,5.42992l-5.17204,0l-1.59655,-4.91349l-0.22417,0.68666l-1.37425,4.22777l-5.17063,-0.00094l4.18303,3.03955l-1.59937,4.91679l4.18398,-3.03955l4.18492,3.04096l-1.59984,-4.9182l4.18492,-3.03955zm-6.21568,4.15478l-0.55338,-0.40173l-0.55337,0.4022l-1.83767,1.33469l0.70172,-2.15886l0.21193,-0.65087l-0.55431,-0.40266l-1.83673,-1.33469l2.95525,0l0.21193,-0.65039l0.70125,-2.15887l0.70126,2.15745l0.21146,0.65039l2.95807,0l-1.83955,1.33564l-0.55479,0.40219l0.21146,0.65181l0.70314,2.15886l-1.83767,-1.33516z" fill-opacity="null" stroke-opacity="null" stroke-width="0" stroke="#000" fill="#ffd825"/>
  <path id="svg_4" d="m58.818451,5.42992l-5.17204,0l-1.59655,-4.91349l-0.22417,0.68666l-1.37425,4.22777l-5.17063,-0.00094l4.18303,3.03955l-1.59937,4.91679l4.18398,-3.03955l4.18492,3.04096l-1.59984,-4.9182l4.18492,-3.03955zm-6.21568,4.15478l-0.55338,-0.40173l-0.55337,0.4022l-1.83767,1.33469l0.70172,-2.15886l0.21193,-0.65087l-0.55431,-0.40266l-1.83673,-1.33469l2.95525,0l0.21193,-0.65039l0.70125,-2.15887l0.70126,2.15745l0.21146,0.65039l2.95807,0l-1.83955,1.33564l-0.55479,0.40219l0.21146,0.65181l0.70314,2.15886l-1.83767,-1.33516z" fill-opacity="null" stroke-opacity="null" stroke-width="0" stroke="#000" fill="#ffd825"/>
  <path id="svg_5" d="m73.751316,5.42992l-5.17204,0l-1.59655,-4.91349l-0.22417,0.68666l-1.37425,4.22777l-5.17063,-0.00094l4.18303,3.03955l-1.59937,4.91679l4.18398,-3.03955l4.18492,3.04096l-1.59984,-4.9182l4.18492,-3.03955zm-6.21568,4.15478l-0.55338,-0.40173l-0.55337,0.4022l-1.83767,1.33469l0.70172,-2.15886l0.21193,-0.65087l-0.55431,-0.40266l-1.83673,-1.33469l2.95525,0l0.21193,-0.65039l0.70125,-2.15887l0.70126,2.15745l0.21146,0.65039l2.95807,0l-1.83955,1.33564l-0.55479,0.40219l0.21146,0.65181l0.70314,2.15886l-1.83767,-1.33516z" fill-opacity="null" stroke-opacity="null" stroke-width="0" stroke="#000" fill="#ffd825"/>
 </g>
</svg>