<svg width="75" height="14" xmlns="http://www.w3.org/2000/svg">
 <!-- Created with Method Draw - http://github.com/duopixel/Method-Draw/ -->
 <g>
  <title>background</title>
  <rect fill="none" id="canvas_background" height="16" width="77" y="-1" x="-1"/>
 </g>
 <g>
  <title>Layer 1</title>
  <path id="svg_1" d="m14.241417,5.429922l-5.172043,0l-1.596542,-4.913488l-0.224175,0.686654l-1.374251,4.227775l-5.17063,-0.000942l4.183035,3.039553l-1.599368,4.916785l4.183977,-3.039553l4.184918,3.040965l-1.599839,-4.918198l4.184918,-3.039553zm-6.215682,4.154777l-0.553374,-0.401726l-0.553374,0.402197l-1.837672,1.33469l0.701725,-2.158864l0.21193,-0.650862l-0.554316,-0.402668l-1.83673,-1.33469l2.955251,0l0.21193,-0.650391l0.701254,-2.158864l0.701254,2.157451l0.211459,0.650391l2.958077,0l-1.839556,1.335632l-0.554787,0.402197l0.211459,0.651804l0.703138,2.158864l-1.837672,-1.335161z" fill-opacity="null" stroke-opacity="null" stroke-width="0" stroke="#000" fill="#ffd825"/>
  <path id="svg_2" d="m28.951404,5.42992l-5.17204,0l-1.59655,-4.91349l-0.22417,0.68666l-1.37425,4.22777l-5.17063,-0.00094l4.18303,3.03955l-1.59937,4.91679l4.18398,-3.03955l4.18492,3.04096l-1.59984,-4.9182l4.18492,-3.03955zm-6.21568,4.15478l-0.55338,-0.40173l-0.55337,0.4022l-1.83767,1.33469l0.70172,-2.15886l0.21193,-0.65087l-0.55431,-0.40266l-1.83673,-1.33469l2.95525,0l0.21193,-0.65039l0.70125,-2.15887l0.70126,2.15745l0.21146,0.65039l2.95807,0l-1.83955,1.33564l-0.55479,0.40219l0.21146,0.65181l0.70314,2.15886l-1.83767,-1.33516z" fill-opacity="null" stroke-opacity="null" stroke-width="0" stroke="#000" fill="#ffd825"/>
  <path id="svg_3" d="m43.82987,5.42992l-5.17204,0l-1.59655,-4.91349l-0.22417,0.68666l-1.37425,4.22777l-5.17063,-0.00094l4.18303,3.03955l-1.59937,4.91679l4.18398,-3.03955l4.18492,3.04096l-1.59984,-4.9182l4.18492,-3.03955zm-6.21568,4.15478l-0.55338,-0.40173l-0.55337,0.4022l-1.83767,1.33469l0.70172,-2.15886l0.21193,-0.65087l-0.55431,-0.40266l-1.83673,-1.33469l2.95525,0l0.21193,-0.65039l0.70125,-2.15887l0.70126,2.15745l0.21146,0.65039l2.95807,0l-1.83955,1.33564l-0.55479,0.40219l0.21146,0.65181l0.70314,2.15886l-1.83767,-1.33516z" fill-opacity="null" stroke-opacity="null" stroke-width="0" stroke="#000" fill="#ffd825"/>
  <path id="svg_4" d="m58.818451,5.42992l-5.17204,0l-1.59655,-4.91349l-0.22417,0.68666l-1.37425,4.22777l-5.17063,-0.00094l4.18303,3.03955l-1.59937,4.91679l4.18398,-3.03955l4.18492,3.04096l-1.59984,-4.9182l4.18492,-3.03955zm-6.21568,4.15478l-0.55338,-0.40173l-0.55337,0.4022l-1.83767,1.33469l0.70172,-2.15886l0.21193,-0.65087l-0.55431,-0.40266l-1.83673,-1.33469l2.95525,0l0.21193,-0.65039l0.70125,-2.15887l0.70126,2.15745l0.21146,0.65039l2.95807,0l-1.83955,1.33564l-0.55479,0.40219l0.21146,0.65181l0.70314,2.15886l-1.83767,-1.33516z" fill-opacity="null" stroke-opacity="null" stroke-width="0" stroke="#000" fill="#ffd825"/>
  <path id="svg_5" d="m73.751316,5.42992l-5.17204,0l-1.59655,-4.91349l-0.22417,0.68666l-1.37425,4.22777l-5.17063,-0.00094l4.18303,3.03955l-1.59937,4.91679l4.18398,-3.03955l4.18492,3.04096l-1.59984,-4.9182l4.18492,-3.03955zm-6.21568,4.15478l-0.55338,-0.40173l-0.55337,0.4022l-1.83767,1.33469l0.70172,-2.15886l0.21193,-0.65087l-0.55431,-0.40266l-1.83673,-1.33469l2.95525,0l0.21193,-0.65039l0.70125,-2.15887l0.70126,2.15745l0.21146,0.65039l2.95807,0l-1.83955,1.33564l-0.55479,0.40219l0.21146,0.65181l0.70314,2.15886l-1.83767,-1.33516z" fill-opacity="null" stroke-opacity="null" stroke-width="0" stroke="#000" fill="#ffd825"/>
  <line stroke-linecap="null" stroke-linejoin="null" id="svg_13" y2="9.423805" x2="7.104931" y1="3.573242" x1="7.104931" stroke-width="NaN" stroke="#ffd825" fill="none"/>
  <path d="m5.154744,10.872516c0,0 -0.091375,-0.124746 0.222878,-0.445757c0.227282,-0.232168 0.363252,-0.36542 0.501477,-0.557197c0.145702,-0.20215 0.128335,-0.321466 0.167159,-0.390038c0.113192,-0.199918 0.162568,-0.411594 0.222878,-0.557197c0.042646,-0.102957 0.046794,-0.167878 0.05572,-0.222878c0.028224,-0.173925 0.01632,-0.294919 0.055719,-0.334318c0.0394,-0.0394 0.01632,-0.07204 0.05572,-0.11144c0.0394,-0.039399 0.119761,-0.029294 0.167159,0c0.21197,0.131005 0.111439,0.445758 0.111439,0.557197c0,0.11144 0,0.167159 0,0.278599c0,0.111439 0,0.222878 0,0.278598c0,0.055719 0.017081,0.248443 -0.055719,0.278598c-0.051478,0.021323 -0.126724,-0.105029 -0.167159,-0.222878c-0.092206,-0.268737 -0.074524,-0.351591 -0.167159,-0.501476c-0.124282,-0.201093 -0.115952,-0.340281 -0.167159,-0.557197c-0.028625,-0.121261 -0.05572,-0.222878 -0.05572,-0.390038c0,-0.167159 -0.012802,-0.335808 0,-0.390038c0.028625,-0.12126 0.167159,-0.167159 0.167159,-0.278598c0,-0.167159 0.05572,-0.222878 0.05572,-0.334318c0,-0.11144 0,-0.278598 0,-0.390038c0,-0.05572 0,-0.111439 0,-0.167159c0,-0.111439 -0.11144,-0.111439 -0.222879,-0.111439c-0.222878,0 -0.502881,-0.006612 -0.780075,0.05572c-0.224141,0.050402 -0.278598,0.055719 -0.334318,0.055719c-0.111439,0 -0.334318,0 -0.612916,0c-0.11144,0 -0.167159,0 -0.222879,0c-0.167159,0 -0.222878,0 -0.278598,0c-0.05572,0 -0.167159,0 -0.222879,0c-0.111439,0 -0.054906,0.039248 0.111439,0.05572c0.282733,0.027996 0.355046,0.077178 0.557196,0.222878c0.063926,0.046075 0.347098,0.074217 0.557197,0.167159c0.183726,0.081275 0.524437,0.221127 0.724355,0.334318c0.137143,0.077649 0.334319,0.222878 0.445757,0.334318c0.055719,0.05572 0.077276,0.106849 0.222878,0.167159c0.051478,0.021323 0.150839,0.01632 0.111439,0.05572c-0.118199,0.118199 -0.197175,-0.033791 -0.334318,-0.111439c-0.199918,-0.113192 -0.317187,-0.177523 -0.390038,-0.278598c-0.046075,-0.063926 -0.039308,-0.130729 -0.167159,-0.222879c-0.101075,-0.072851 -0.192723,-0.205797 -0.222878,-0.278598c-0.042646,-0.102956 -0.026426,-0.119761 -0.05572,-0.167159c-0.065502,-0.105985 -0.170037,-0.075738 -0.390038,-0.111439c-0.173925,-0.028224 -0.355875,-0.106849 -0.501477,-0.167159c-0.102956,-0.042646 -0.225269,0.016147 -0.278598,0c-0.19228,-0.058218 -0.278598,-0.111439 -0.334318,-0.111439c-0.05572,0 -0.167159,-0.05572 -0.167159,0c0,0.05572 0.334318,0 0.557197,0c0.167159,0 0.390038,0 0.501477,0c0.111439,0 0.278598,0 0.390038,0c0.278598,0 0.334318,0 0.390038,0c0.055719,0 0.334318,0 0.445757,0c0.222879,0 0.278598,0 0.334318,0c0.055719,0 0.115681,0.034397 0.167159,0.05572c0.072801,0.030155 0.055719,0.167159 0.055719,0.222878c0,0.334318 0.054696,0.596869 0.111439,0.891514c0.021074,0.109428 0.027495,0.216112 0.05572,0.390038c0.035701,0.220001 0,0.334318 0,0.390037c0,0.11144 0,0.167159 0,0.222879c0,0.055719 0,0.111439 0,0.222878c0,0.167158 0,0.278598 0,0.390038c0,0.055719 0.05572,0.167159 0.05572,0.222878c0,0.055719 0,0.111439 0,0.167159c0,0.055719 0.027094,0.157337 0.055719,0.278598c0.012802,0.054229 -0.001491,0.098639 -0.055719,0.11144c-0.12126,0.028625 -0.318074,0.093198 -0.668636,0.222878c-0.215468,0.079707 -0.312995,0.11568 -0.334318,0.167159c-0.030155,0.072801 -0.16865,0.042918 -0.222878,0.055719c-0.12126,0.028625 -0.190498,0.190497 -0.278598,0.278598c-0.0881,0.0881 -0.111439,0.167159 -0.111439,0.222878l0,0.11144" id="svg_28" fill-opacity="null" stroke-opacity="null" stroke-width="NaN" stroke="#ffd825" fill="none"/>
  <path d="m7.32781,4.074718c0,0 0.200484,0.083732 0.334318,0.278598c0.310681,0.452362 0.451461,1.020862 0.612916,1.392991c0.129316,0.298054 0.222878,0.501477 0.334318,0.612916c0.111439,0.111439 0.055719,0.111439 0,0.111439c-0.055719,0 -0.270153,0.036586 -0.390038,-0.167159c-0.205714,-0.349614 -0.324453,-0.649406 -0.445757,-1.002954c-0.092206,-0.268737 -0.055719,-0.501477 -0.055719,-0.612916c0,-0.111439 0,0.167159 0,0.724356c0,0.167159 0,0.668636 0,1.225832c0,0.05572 -0.136654,0.128287 -0.278598,-0.111439c-0.200739,-0.339025 -0.05572,-0.780075 -0.05572,-0.947234c0,-0.11144 -0.03264,-0.199799 -0.111439,-0.278598c-0.0394,-0.0394 0.115681,-0.077043 0.167159,-0.05572c0.291205,0.120621 0.400522,0.579865 0.612916,0.947234c0.139443,0.24119 0.178682,0.323879 0.278598,0.445757c0.127369,0.155365 0.334318,0.167159 0.445758,0.167159c0.055719,0 0.162869,0.05278 0.278598,-0.111439c0.13234,-0.187791 0.150077,-0.359882 0.222878,-0.390038c0.154435,-0.063969 0.280038,-0.037869 0.390038,-0.05572c0.173925,-0.028224 0.278599,-0.055719 0.334318,-0.055719c0.055719,0 0.167159,0.055719 0.167159,0c0,-0.055719 -0.292895,-0.032381 -0.557197,0.055719c-0.264301,0.0881 -0.524438,0.332566 -0.724356,0.445757c-0.068571,0.038824 -0.055719,0.111439 0.167159,0.111439c0.390038,0 0.891515,0 1.114393,0c0.278598,0 0.336709,-0.151012 0.390038,-0.167159c0.19228,-0.058218 0.222878,-0.111439 0.334318,-0.111439c0.055719,0 -0.004318,-0.030722 -0.11144,0c-0.505288,0.144915 -0.691381,0.542738 -1.170113,0.891514c-0.262598,0.191314 -0.511842,0.261467 -0.612916,0.334318c-0.255701,0.1843 -0.351592,0.185963 -0.501477,0.278598c-0.134062,0.082855 -0.177524,0.205748 -0.278598,0.278599c-0.063925,0.046075 0.034433,-0.021884 0.278598,-0.167159c0.373992,-0.222521 0.605927,-0.566226 0.891515,-0.780075c0.54443,-0.407669 0.852438,-0.491508 0.947234,-0.668636c0.026292,-0.049127 0.014297,-0.134778 0.278598,-0.222878c0.158581,-0.05286 0.222878,0 0.278599,0c0.055719,0 0.101618,-0.082814 0.222878,-0.111439c0.162687,-0.038405 0.280088,0.012802 0.334317,0c0.121261,-0.028625 0.150839,-0.127759 0.11144,-0.167159c-0.039399,-0.0394 -0.11144,0 -0.167159,0c-0.055719,0 -0.167159,0 -0.222878,0c-0.11144,0 -0.282969,-0.01171 -0.445757,0.055719c-0.345327,0.143039 -0.844963,0.431281 -1.392991,1.002954c-0.385592,0.402228 -0.522935,0.745084 -0.668636,0.947234c-0.138225,0.191776 -0.222878,0.278599 -0.278598,0.278599c-0.05572,0 -0.120863,0.055331 -0.278599,0c-0.336668,-0.118097 -0.498342,-0.761525 -0.612916,-1.170113c-0.10638,-0.379364 -0.111439,-0.501477 -0.111439,-0.668636c0,-0.111439 -0.0394,-0.239198 0,-0.278598c0.0394,-0.0394 0.128405,-0.085292 0.334318,0c0.072801,0.030155 0.111439,0.278598 0.111439,0.557196c0,0.390038 -0.443588,1.12619 0,1.170113c0.282733,0.027996 0.055719,-0.612916 0.055719,-1.002954c0,-0.222879 0.060192,-0.317003 0.222878,-0.278598c0.121261,0.028625 0.141921,0.22914 0.222878,0.501477c0.085501,0.28762 0.150839,0.573516 0.11144,0.612916c-0.039399,0.0394 -0.132413,-0.283073 -0.222878,-0.501477c-0.042646,-0.102956 0,-0.167159 0,-0.055719c0,0.055719 0.001751,0.468717 -0.11144,0.668635c-0.038824,0.068572 -0.11442,0.030117 -0.222878,0.05572c-0.12126,0.028625 -0.128753,0.060191 -0.167159,0.222878c-0.028625,0.12126 -0.111439,0.222878 -0.111439,0.390038c0,0.222878 -0.0394,0.462077 0,0.501476c0.0394,0.039399 0.115117,-0.006817 0.222878,0.05572c0.17376,0.100838 0.270391,0.176803 0.334318,0.222878c0.20215,0.145701 0.355045,0.244336 0.557196,0.390038c0.127851,0.09215 0.128754,0.22735 0.167159,0.390038c0.028625,0.12126 0.167159,0.222878 0.334318,0.390038c0.11144,0.111439 0.183479,0.183479 0.222878,0.222878c0.039399,0.039399 0.12776,0.095119 0.167159,0.055719c0.039399,-0.039399 -0.077177,-0.466485 -0.222878,-0.668635c-0.138225,-0.191776 -0.194253,-0.380217 -0.222878,-0.501477c-0.051207,-0.216916 -0.020114,-0.397962 -0.11144,-0.724356c-0.080853,-0.28896 -0.119479,-0.442087 -0.167159,-0.557196c-0.06743,-0.162788 -0.111439,-0.222879 -0.111439,-0.334318c0,-0.167159 0.055719,-0.278598 0,-0.278598c-0.055719,0 0,0.557196 0,0.947234c0,0.501477 0,0.780075 0,1.002954c0,0.05572 -0.080908,-0.1122 -0.11144,-0.724355c-0.027894,-0.55928 -0.165405,-0.970195 -0.278598,-1.170113c-0.038825,-0.068572 -0.05572,-0.111439 -0.05572,0.05572c0,0.222878 0.05572,0.612916 0.05572,1.002954c0,0.167159 0.039399,0.406358 0,0.445757c-0.0394,0.0394 -0.10777,-0.00804 -0.222878,-0.055719c-0.162788,-0.06743 -0.284052,-0.157376 -0.390038,-0.222878c-0.094796,-0.058587 -0.192723,0.017082 -0.222878,-0.055719c-0.042646,-0.102957 0,-0.222879 0,-0.334318c0,-0.11144 0.171529,-0.123149 0.334318,-0.055719c0.230217,0.09536 0.431645,0.299289 0.668636,0.445757c0.105985,0.065502 0.176804,0.214672 0.222878,0.278598c0.072851,0.101075 0.278598,0.390038 0.334317,0.501477l0.05572,0.055719l0,0.05572" id="svg_29" fill-opacity="null" stroke-opacity="null" stroke-width="NaN" stroke="#ffd825" fill="none"/>
  <line stroke-linecap="null" stroke-linejoin="null" id="svg_30" y2="9.728383" x2="21.647759" y1="3.740401" x1="21.647759" fill-opacity="null" stroke-opacity="null" stroke-width="NaN" stroke="#ffd825" fill="none"/>
  <path d="m18.3603,6.470664c0.222878,0 0.445757,0 0.780075,0c0.167158,0 0.390038,0 0.445757,0c0.111439,0 0.390038,0 0.557196,0c0.111441,0 0.16716,0 0,0c-0.111439,0 -0.390038,0 -0.557196,0c-0.111439,0 -0.167158,0 0,0c0.167158,0 0.334318,0 0.612917,0c0.167158,0 0.278597,0 0.334316,0c0.055721,0 0.111441,0 0.222879,0c0.055719,0 0.183479,-0.039401 0.222879,0c0.0394,0.0394 0,0.501477 0,0.780075c0,0.278598 0,0.501477 0,0.557197c0,0.05572 0,0.167159 0,0.278599c0,0.167158 0,0.278598 0,0.334317c0,0.11144 0,0.278599 0,0.445757c0,0.222879 0,0.334318 0,0.557197c0,0.167159 -0.010517,0.255459 -0.055721,0.222878c-0.142941,-0.103026 -0.055719,-0.501476 -0.055719,-0.780075c0,-0.222878 -0.084208,-0.558866 -0.111439,-0.780074c-0.02807,-0.228017 -0.127758,-0.294919 -0.167158,-0.334318c-0.0394,-0.039401 -0.222879,-0.05572 -0.278599,-0.05572c-0.055719,0 -0.101618,-0.027094 -0.222879,-0.055719c-0.162687,-0.038404 -0.287079,-0.180233 -0.390038,-0.222879c-0.072802,-0.030155 -0.183477,-0.01632 -0.222878,-0.055719c-0.0394,-0.0394 -0.025564,-0.205798 -0.055719,-0.278598c-0.042646,-0.102956 -0.111441,-0.278598 -0.111441,-0.222879c0,0.111441 0.497808,0.00804 0.612917,0.05572c0.162788,0.06743 0.278599,0.05572 0.334318,0.05572c0.055719,0 0.167158,0 0.222878,0c0.055719,0 0,0 -0.111439,0c-0.111439,0 -0.167158,0 -0.222879,0c-0.055719,0 0.000719,0.046794 0.055721,0.055719c0.173925,0.028224 0.30632,0.163024 0.334316,0.445757c0.021961,0.221794 0,0.390038 0,0.612916c0,0.111439 -0.055719,0.111439 -0.167158,-0.05572c-0.111439,-0.167159 -0.253035,-0.372954 -0.222879,-0.445757c0.021324,-0.05148 0.111441,0.111439 0.111441,0.334318c0,0.16716 0,0.334318 0,0.445757c0,0.11144 -0.055719,0.334318 -0.055719,0.445757c0,0.11144 0,0.222878 0,0.390038c0,0.167159 0,0.390038 0,0.445757c0,0.167159 -0.083216,0.383271 -0.111441,0.557197c-0.017851,0.110001 -0.101656,0.116895 -0.167158,0.222879c-0.029293,0.047398 -0.025564,0.205797 -0.055719,0.278598c-0.042646,0.102956 -0.111439,0.278598 0,0.278598c0.055719,0 0.270084,-0.559498 0.334318,-0.780075c0.049263,-0.169173 0.072268,-0.257081 0.222878,-0.390038c0.093405,-0.082456 0.304163,-0.094357 0.334318,-0.167159c0.021322,-0.051478 0.076794,-0.053709 0.055719,0.05572c-0.056744,0.294644 -0.206558,0.350638 -0.167158,0.390038c0.0394,0.039399 0.111439,0 0.167158,0c0.055719,0 0.111439,0 0.222879,0c0.055719,0 0.081284,-0.038638 0.111439,-0.11144c0.021322,-0.051478 0,-0.111439 0,-0.167159c0,-0.055719 0.027494,-0.160392 0.055719,-0.334317c0.017851,-0.110001 -0.027094,-0.065541 -0.055719,0.055719c-0.012802,0.054229 0,0.111439 0,0.222878c0,0.055719 -0.08836,0.134519 -0.167158,0.055719c-0.078798,-0.078799 0,-0.222878 0,-0.501476c0,-0.222878 0,-0.278599 0,-0.390038c0,-0.167159 0,-0.445757 0,-0.668636c0,-0.111439 -0.055721,-0.222878 -0.055721,-0.334318c0,-0.167159 0,-0.278598 0,-0.390038c0,-0.111439 0,-0.167159 0,-0.278598c0,-0.222878 0,-0.445757 0,-0.557196c0,-0.05572 0,-0.167159 0,-0.222878c0,-0.111439 0,-0.167159 0,-0.278598l0,-0.05572" id="svg_31" fill-opacity="null" stroke-opacity="null" stroke-width="NaN" stroke="#ffd825" fill="none"/>
  <path d="m22.093515,4.297597c0,-0.167159 0,-0.278598 0,-0.445757c0,-0.167159 0,-0.334318 0,-0.278598c0,0.111439 0,0.222878 0,0.390038c0,0.445757 -0.023701,0.780916 0,1.114393c0.027931,0.393006 0.277575,0.596869 0.334318,0.891515c0.042149,0.218857 0.051128,0.467314 0.111439,0.612916c0.063969,0.154435 0.042559,-0.002329 0,-0.390038c-0.056053,-0.510642 -0.145256,-0.881387 -0.334316,-1.114393c-0.126583,-0.156006 -0.150078,-0.420193 -0.222879,-0.390038c-0.051479,0.021323 -0.060438,0.351692 0.111439,0.835795c0.125059,0.352237 0.164885,0.572231 0.278599,0.891514c0.150721,0.423188 0.26228,0.462077 0.222879,0.501477c-0.0394,0.039401 -0.047432,-0.230331 -0.111441,-0.501477c-0.057251,-0.242519 -0.094166,-0.371231 0.055719,-0.278598c0.067032,0.041428 0.324497,0.194253 0.445759,0.222879c0.162687,0.038405 0.222878,0.055719 0.501476,0.055719c0.167158,0 0.38707,0.083509 0.780075,0.111439c0.111158,0.0079 0.334318,0 0.668636,0c0.167158,0 0.334316,0 0.278597,0c-0.111439,0 -0.222878,0.111439 -0.501476,0.111439c-0.222878,0 -0.278599,0 -0.167158,0c0.167158,0 0.445757,0 0.724354,0c0.055721,0 0.213478,-0.012288 0.501478,-0.222878c0.324341,-0.237164 0.557196,-0.16716 0.557196,-0.278598c0,-0.055719 -0.11622,-0.032293 -0.222878,0c-0.38456,0.116436 -0.537556,0.444226 -0.780075,0.501477c-0.108459,0.025604 -0.156481,0.074967 -0.445759,0.222878c-0.377823,0.193185 -0.811165,0.338645 -1.114391,0.557197c-0.191778,0.138225 -0.362415,0.169137 -0.612917,0.334318c-0.26314,0.173513 -0.305611,0.383053 -0.278599,0.334318c0.254822,-0.459763 0.941301,-0.846755 1.448711,-1.114393c0.330608,-0.174382 0.673227,-0.188715 0.612917,-0.334318c-0.042646,-0.102958 -0.261919,0.028661 -0.724356,0.278598c-0.701834,0.379326 -1.593197,0.695133 -2.061626,0.780075c-0.164478,0.029826 0,-0.05572 0.278597,-0.222878c0.278599,-0.16716 0.70821,-0.331927 0.724356,-0.278598c0.058218,0.192279 -0.623549,0.581826 -1.281551,0.724355c-0.108913,0.023592 -0.055128,0.008091 0,0c0.575563,-0.084475 1.677044,-0.622698 1.783028,-0.557196c0.094795,0.058587 -0.43899,0.361813 -0.612915,0.390038c-0.055,0.008925 -0.064928,-0.086083 0.501476,-0.445757c0.358225,-0.227478 0.853067,-0.520281 1.002954,-0.612916c0.06703,-0.041427 0.050444,-0.006921 -0.390038,0.334318c-0.282045,0.2185 -0.576487,0.540785 -0.668636,0.668636c-0.072851,0.101075 -0.055719,0.278598 -0.055719,0.390038c0,0.167158 0,0.278598 0,0.501476c0,0.167159 -0.008249,0.235602 0.055719,0.390038c0.030155,0.072801 -0.008249,0.235602 0.055719,0.390038c0.06031,0.145602 0.17548,0.193583 0.222879,0.222878c0.105986,0.065503 0.016548,0.312801 0.167158,0.445758c0.093405,0.082456 0.095291,0.11383 0.111439,0.167158c0.058218,0.192281 0.188715,0.441167 0.334318,0.501477c0.051477,0.021323 -0.038637,-0.025564 -0.111439,-0.055719c-0.102957,-0.042645 -0.318388,-0.123235 -0.445757,-0.278599c-0.149874,-0.182817 -0.203314,-0.233788 -0.334318,-0.445757c-0.146469,-0.23699 -0.278599,-0.390038 -0.390038,-0.501477c-0.111439,-0.111439 -0.158953,-0.176803 -0.222879,-0.222878c-0.101074,-0.07285 -0.224316,-0.149308 -0.334318,-0.167159c-0.173925,-0.028224 -0.373625,-0.242167 -0.501476,-0.334317c-0.101074,-0.07285 -0.324533,-0.228333 -0.390038,-0.334318c-0.029293,-0.047398 0,-0.167159 0.055719,-0.167159c0.16716,0 0.335037,-0.008925 0.390038,0c0.173927,0.028224 0.291092,0.050305 0.334318,0.167159c0.079706,0.215467 0,0.390038 0.055719,0.390038c0.167158,0 0.033894,-0.67907 -0.055719,-1.058673c-0.028625,-0.12126 -0.051477,-0.188482 0,-0.167159c0.291206,0.120621 0.690561,0.512076 0.891514,0.947235c0.096317,0.208573 0.068523,0.335808 0.055721,0.390037c-0.028627,0.121261 -0.278599,0.222879 -0.334318,0.222879c-0.111439,0 -0.323168,-0.033435 -0.390038,-0.222879c-0.204853,-0.58035 -0.055719,-0.780074 -0.055719,-0.947234c0,-0.055719 0.287081,-0.098366 0.390038,-0.055719c0.218403,0.090466 0.278597,0.390037 0.278597,0.501477c0,0.11144 -0.111439,0.278598 -0.334316,0.278598c-0.111441,0 -0.175642,0.042645 -0.278599,0c-0.072802,-0.030155 -0.055719,-0.278598 -0.055719,-0.445757l0,-0.111439l0,-0.05572l0.111439,0" id="svg_32" fill-opacity="null" stroke-opacity="null" stroke-width="NaN" stroke="#ffd825" fill="none"/>
  <line stroke-linecap="null" stroke-linejoin="null" id="svg_33" y2="9.702668" x2="36.524905" y1="3.85184" x1="36.524905" fill-opacity="null" stroke-opacity="null" stroke-width="NaN" stroke="#ffd825" fill="none"/>
  <path d="m33.293163,6.359224c0,0 0.16716,0 0.612919,0c0.390038,0 0.780075,0 1.058674,0c0.445755,0 0.724354,0.055721 0.724354,0c0,-0.111439 -0.390038,0 -0.780075,0c-0.278599,0 -0.111439,-0.05572 0.16716,-0.05572c0.278599,0 0.422676,-0.078799 0.501476,0c0.1576,0.157599 0,0.334318 0,0.668636c0,0.334318 0,0.557196 0,0.668636c0,0.111439 0,0.222878 0,0.390037c0,0.11144 0,0.334318 0,0.445758c0,0.055719 0,0.111439 0,0.222878c0,0.167158 -0.0788,0.422677 0,0.501476c0.039398,0.039398 0.083214,0.048953 0.111439,0.222878c0.017853,0.110001 0,0.167159 0,0.222878c0,0.05572 -0.036911,0.128713 0.055721,0.278599c0.041428,0.06703 0.090115,0.05996 0.111439,0.11144c0.090466,0.218404 -0.498348,0.561455 -0.724358,0.724355c-0.142941,0.103025 -0.183475,0.150841 -0.222878,0.11144c-0.039402,-0.0394 0.16716,-0.612916 0.16716,-1.058674c0,-0.055719 0.140064,-0.045899 0.111439,-0.167159c-0.012802,-0.054231 -0.137005,0.038638 -0.16716,0.11144c-0.063969,0.154434 -0.034164,0.274008 0.111439,0.334318c0.154434,0.06397 0.278599,0 0.390038,0c0.055721,0 0.278599,-0.055719 0.501476,-0.055719c0.055721,0 0.111443,-0.05572 0.111443,-0.167159c0,-0.05572 0,-0.11144 -0.055721,-0.11144c-0.055721,0 -0.222878,0 -0.278599,0c-0.055717,0 -0.111439,0 -0.16716,0c-0.055717,0 -0.157375,0.050265 -0.222878,-0.055719c-0.029293,-0.047399 0.012802,-0.224369 0,-0.278599c-0.028625,-0.121259 -0.055717,-0.557197 -0.055717,-0.724355c0,-0.11144 0,-0.334318 0,-0.445758c0,-0.222878 0.023987,-0.341729 -0.055721,-0.557196c-0.043228,-0.116854 -0.117203,-0.217659 -0.16716,-0.278598c-0.127369,-0.155364 -0.276585,-0.340775 -0.445755,-0.390038c-0.220577,-0.064233 -0.261471,-0.121802 -0.33432,-0.222878c-0.046074,-0.063924 -0.171398,-0.034397 -0.222878,-0.05572c-0.072803,-0.030155 -0.032639,-0.144079 -0.111439,-0.222878c-0.039402,-0.039401 -0.055721,-0.055719 -0.111439,-0.055719c-0.055721,0 0,0 0.111439,0.055719c0.222878,0.111439 0.286098,0.268093 0.445755,0.390038c0.14003,0.106954 0.16716,0.111439 0.055721,0.111439c-0.111439,0 -0.321003,-0.134613 -0.501476,-0.222878c-0.158287,-0.077415 -0.222462,-0.062528 -0.16716,-0.05572c0.228016,0.02807 0.299809,0.191872 0.612915,0.278598c0.107399,0.029748 0.187889,-0.034261 0.390038,0.111439c0.063927,0.046075 0.16716,0.222879 0.16716,0.334318c0,0.167159 0.194881,0.608782 0.222878,0.891514c0.005489,0.055449 0,0.222878 0,0.334318c0,0.222878 0,0.390038 0,0.501476l0,0.05572l0,0.055719" id="svg_34" fill-opacity="null" stroke-opacity="null" stroke-width="NaN" stroke="#ffd825" fill="none"/>
  <path d="m37.304981,6.804981c0,-0.05572 0,-0.390038 0,-0.557197c0,-0.612916 0,-0.947234 0,-1.002954c0,-0.167159 0,-0.278598 0,-0.445757c0,-0.167159 0,-0.222878 0,-0.278598c0,-0.05572 0,-0.167159 0,-0.278598c0,-0.111439 -0.111443,-0.167158 -0.222881,-0.278598c-0.055717,-0.055719 -0.111439,-0.05572 -0.111439,0c0,0.05572 0.051571,0.257458 0.16716,0.612916c0.104813,0.322316 0.1273,0.608729 0.222878,1.002954c0.06694,0.276117 0.184471,0.728827 0.222878,0.891514c0.057255,0.242521 0.194256,0.547375 0.222881,0.668635c0.012802,0.054229 0,0.111439 0,0.05572c0,-0.222878 0,-0.390038 0,-0.557197c0,-0.055719 0.088818,-0.027135 0.222878,0.05572c0.29977,0.185268 0.557198,0.278598 0.668636,0.278598c0.16716,0 0.390038,0 0.668636,0c0.222878,0 0.384899,-0.027649 0.612915,-0.05572c0.110603,-0.013616 0.220383,-0.030599 0.278599,-0.222878c0.048439,-0.159986 0.095116,-0.350637 0.055717,-0.390038c-0.0788,-0.078799 -0.167156,0 -0.222878,0c-0.390038,0 -0.888546,0.02779 -1.281551,0.05572c-0.277897,0.01975 -0.335037,-0.008925 -0.390038,0c-0.173927,0.028224 -0.334316,0.111439 -0.278599,0.111439c0.501476,0 1.058674,0 1.448711,0c0.222878,0 0.312992,-0.051476 0.334316,0c0.090466,0.218401 -0.594467,0.341239 -1.337269,0.947234c-0.824848,0.672929 -1.425373,1.072971 -1.337273,1.337272c0.07048,0.21144 0.493664,-0.179184 1.002953,-0.501477c0.549088,-0.347479 0.746941,-0.617525 1.114395,-0.780075c0.210098,-0.092941 0.272942,-0.186233 0.055717,-0.111439c-0.518879,0.178657 -0.834705,0.282267 -1.39299,0.445757c-0.389297,0.114003 -0.496887,0.145602 -0.557198,0c-0.149261,-0.360348 -0.068974,-0.862515 0.111439,-1.225832c0.123909,-0.249527 0.276581,-0.319445 0.222881,-0.334318c-0.31311,-0.086727 -0.732288,1.094056 -1.114395,1.56015c-0.199833,0.243755 -0.278599,0.278599 -0.278599,0.167159c0,-0.390038 0.115768,-0.811168 0.33432,-1.114393c0.184299,-0.255701 0.278599,-0.278598 0.278599,-0.334318c0,-0.278598 0,-0.668636 0,-0.835794c0,-0.222879 0,-0.334318 0,-0.445757c0,-0.055719 -0.055,-0.158234 0,-0.167159c0.173927,-0.028223 0.055717,0.501477 0.055717,0.835795c0,1.002954 -0.009041,1.430626 0.16716,1.783029c0.07048,0.14096 0.103233,0.176804 0.16716,0.222878c0.101074,0.07285 0.07452,0.240153 0.167156,0.390038c0.041428,0.067032 0.2286,0.178596 0.33432,0.390038c0.176201,0.352402 0.082146,0.565518 0.111439,0.612916c0.065502,0.105985 0.141102,0.178243 0.222878,0.334317c0.129299,0.246778 0.294918,0.350638 0.33432,0.390038c0.039398,0.039398 0.109947,0.012802 0.055717,0c-0.121258,-0.028625 -0.346603,-0.21348 -0.557194,-0.501477c-0.118584,-0.162171 -0.134781,-0.357656 -0.222881,-0.445757c-0.0881,-0.0881 -0.167156,-0.11144 -0.167156,-0.222879c0,-0.167158 -0.029293,-0.2312 0,-0.278598c0.065502,-0.105985 0.171398,-0.034395 0.222878,-0.055719c0.0728,-0.030155 0.111439,-0.055719 0.16716,-0.055719c0.167156,0 0.293049,-0.012783 0.390038,0.111439c0.199947,0.256084 0.261463,0.511841 0.334316,0.612916c0.092152,0.127851 0.158234,0.335037 0.16716,0.390038c0.028225,0.173925 0.068794,0.231361 0.111439,0.334318c0.030155,0.0728 0.055717,0.11144 0.055717,0.167159c0,0.111439 0.055721,0.167159 0,0.167159c-0.055717,0 -0.1838,0.058586 -0.278595,0c-0.105988,-0.065502 -0.077045,-0.051479 -0.055721,0c0.06031,0.145601 0.10162,0.249972 0.222878,0.278598c0.05423,0.012802 0.073338,0.06424 -0.055717,-0.055719c-0.530556,-0.493155 -0.708611,-1.016422 -0.891514,-1.56015c-0.125618,-0.373435 -0.111443,-0.557197 -0.111443,-0.668636c0,-0.111439 0,-0.222878 0,-0.390037c0,-0.111439 0,-0.222878 0,-0.390038c0,-0.05572 0.063133,-0.031733 0.278599,-0.111439c0.116852,-0.043227 0.311699,-0.140025 0.445759,-0.222879c0.149887,-0.092635 0.390038,-0.111439 0.445755,-0.111439c0.055721,0 0.170139,-0.030116 0.278599,-0.055719c0.121258,-0.028625 0.329727,-0.021557 0.390038,-0.167159c0.021324,-0.051478 0.026428,-0.064042 0.055721,-0.111439c0.065502,-0.105985 0.334316,-0.111442 0.334316,-0.167159c0,-0.167156 -0.367271,-0.04365 -0.668636,0.111439c-0.350327,0.180285 -0.630188,0.464561 -0.780075,0.557197c-0.13406,0.082855 -0.18145,0.267286 -0.222878,0.334318c-0.092636,0.149885 -0.111439,0.334318 -0.111439,0.501477c0,0.222878 -0.017853,0.280038 0,0.390038c0.028225,0.173926 0.145836,0.28284 0.16716,0.334318c0.030155,0.0728 0.140022,0.088817 0.222878,0.222878c0.092636,0.149886 0.083214,0.438991 0.111439,0.612916c0.008926,0.055 -0.042648,0.175642 0,0.278599c0.030155,0.072802 0.081284,0.150079 0.111439,0.222878c0.042645,0.102957 0.030117,0.22586 0.055721,0.334318c0.028625,0.121259 0.124516,0.3428 0.16716,0.445757c0.030155,0.0728 0.111439,0.055719 0.167156,0.055719l0,0.167159l0.055721,0" id="svg_35" fill-opacity="null" stroke-opacity="null" stroke-width="NaN" stroke="#ffd825" fill="none"/>
  <path d="m37.360699,9.368085c0,0.055719 -0.062351,0.17916 -0.16716,0.501477c-0.038528,0.118484 0.027233,-0.096025 0.111443,-0.780075c0.061272,-0.49772 0.111439,-1.002954 0.111439,-1.281552l0,-0.055719" id="svg_36" fill-opacity="null" stroke-opacity="null" stroke-width="NaN" stroke="#ffd825" fill="none"/>
 </g>
</svg>